{
  "images": [
    {"uri": "data:image/png;base64,"},
    {"uri": "data:image/png;base64,"},
    {"uri": "data:image/png;base64,"},
    {"uri": "data:image/png;base64,"}
  ],
  "accessors": [
    {
      "componentType": 5126,
      "min": [
        -4,
        -12.5,
        -4
      ],
      "byteOffset": 0,
      "bufferView": 0,
      "max": [
        4,
        10.499999046325684,
        4
      ],
      "count": 660,
      "type": "VEC3"
    },
    {
      "componentType": 5126,
      "byteOffset": 0,
      "bufferView": 1,
      "count": 660,
      "type": "VEC3"
    },
    {
      "componentType": 5126,
      "byteOffset": 0,
      "bufferView": 2,
      "count": 660,
      "type": "VEC2"
    },
    {
      "componentType": 5126,
      "byteOffset": 0,
      "bufferView": 2,
      "count": 660,
      "type": "VEC2"
    },
    {
      "componentType": 5126,
      "min": [
        -5,
        -13.999999046325684,
        -5
      ],
      "byteOffset": 0,
      "bufferView": 3,
      "max": [
        5,
        13.999999046325684,
        5
      ],
      "count": 852,
      "type": "VEC3"
    },
    {
      "componentType": 5126,
      "byteOffset": 0,
      "bufferView": 4,
      "count": 852,
      "type": "VEC3"
    },
    {
      "componentType": 5126,
      "byteOffset": 0,
      "bufferView": 5,
      "count": 852,
      "type": "VEC2"
    },
    {
      "componentType": 5126,
      "byteOffset": 0,
      "bufferView": 5,
      "count": 852,
      "type": "VEC2"
    }
  ],
  "textures": [
    {
      "source": 0,
      "sampler": 0
    },
    {
      "source": 1,
      "sampler": 0
    },
    {
      "source": 2,
      "sampler": 0
    },
    {
      "source": 3,
      "sampler": 0
    }
  ],
  "buffers": [
    {
      "byteLength": 7920,
      "uri": "data:application/octet-stream;base64,"
    },
    {
      "byteLength": 7920,
      "uri": "data:application/octet-stream;base64,"
    },
    {
      "byteLength": 5280,
      "uri": "data:application/octet-stream;base64,"
    },
    {
      "byteLength": 10224,
      "uri": "data:application/octet-stream;base64,"
    },
    {
      "byteLength": 10224,
      "uri": "data:application/octet-stream;base64,"
    },
    {
      "byteLength": 6816,
      "uri": "data:application/octet-stream;base64,"
    }
  ],
  "bufferViews": [
    {
      "byteOffset": 0,
      "byteLength": 7920,
      "buffer": 0,
      "byteStride": 12,
      "target": 34962
    },
    {
      "byteOffset": 0,
      "byteLength": 7920,
      "buffer": 1,
      "byteStride": 12,
      "target": 34962
    },
    {
      "byteOffset": 0,
      "byteLength": 5280,
      "buffer": 2,
      "byteStride": 8,
      "target": 34962
    },
    {
      "byteOffset": 0,
      "byteLength": 10224,
      "buffer": 3,
      "byteStride": 12,
      "target": 34962
    },
    {
      "byteOffset": 0,
      "byteLength": 10224,
      "buffer": 4,
      "byteStride": 12,
      "target": 34962
    },
    {
      "byteOffset": 0,
      "byteLength": 6816,
      "buffer": 5,
      "byteStride": 8,
      "target": 34962
    }
  ],
  "samplers": [{
    "minFilter": 9728,
    "wrapT": 33071,
    "wrapS": 33071,
    "magFilter": 9728
  }],
  "scene": 0,
  "nodes": [
    {
      "children": [
        1,
        2
      ],
      "rotation": [
        0,
        -1,
        0,
        -4.371138828673793E-8
      ],
      "translation": [
        0,
        0,
        0
      ],
      "name": "Root-Global",
      "scale": [
        -1,
        1,
        1
      ]
    },
    {
      "rotation": [
        0,
        0,
        0,
        1
      ],
      "translation": [
        0,
        0,
        0
      ],
      "name": "Root-Local",
      "scale": [
        1,
        1,
        1
      ]
    },
    {
      "children": [
        3,
        4,
        6
      ],
      "rotation": [
        0,
        0,
        0,
        1
      ],
      "translation": [
        0,
        0,
        0
      ],
      "name": "control-Global",
      "scale": [
        1,
        1,
        1
      ]
    },
    {
      "rotation": [
        0,
        0,
        0,
        1
      ],
      "translation": [
        0,
        0,
        0
      ],
      "name": "control-Local",
      "scale": [
        1,
        1,
        1
      ]
    },
    {
      "children": [5],
      "rotation": [
        0,
        0,
        0,
        1
      ],
      "translation": [
        0,
        1,
        -1
      ],
      "name": "seb-Global",
      "scale": [
        1,
        1,
        1
      ]
    },
    {
      "rotation": [
        0,
        0,
        0,
        1
      ],
      "translation": [
        0,
        12.5,
        1.5
      ],
      "name": "seb-Local",
      "scale": [
        1,
        1,
        1
      ],
      "mesh": 0
    },
    {
      "children": [7],
      "rotation": [
        0,
        0,
        0,
        1
      ],
      "translation": [
        0,
        0,
        0
      ],
      "name": "box-Global",
      "scale": [
        1,
        1,
        1
      ]
    },
    {
      "rotation": [
        0,
        0,
        0,
        1
      ],
      "translation": [
        0,
        14,
        0
      ],
      "name": "box-Local",
      "scale": [
        1,
        1,
        1
      ],
      "mesh": 1
    }
  ],
  "materials": [
    {
      "name": "goblin-Material",
      "emissiveTexture": {
        "index": 1,
        "texCoord": 1
      },
      "pbrMetallicRoughness": {
        "baseColorTexture": {"index": 0},
        "metallicFactor": 0,
        "roughnessFactor": 1
      },
      "emissiveFactor": [
        1,
        1,
        1
      ]
    },
    {
      "name": "blue-Material",
      "emissiveTexture": {
        "index": 3,
        "texCoord": 1
      },
      "pbrMetallicRoughness": {
        "baseColorTexture": {"index": 2},
        "metallicFactor": 0,
        "roughnessFactor": 1
      },
      "emissiveFactor": [
        1,
        1,
        1
      ]
    }
  ],
  "animations": [],
  "scenes": [{"nodes": [0]}],
  "asset": {
    "generator": "VoxEdit Beta ba991e52",
    "version": "2.0"
  },
  "meshes": [
    {
      "primitives": [{
        "mode": 4,
        "material": 0,
        "attributes": {
          "POSITION": 0,
          "TEXCOORD_1": 3,
          "TEXCOORD_0": 2,
          "NORMAL": 1
        }
      }],
      "name": "goblin-Mesh"
    },
    {
      "primitives": [{
        "mode": 4,
        "material": 1,
        "attributes": {
          "POSITION": 4,
          "TEXCOORD_1": 7,
          "TEXCOORD_0": 6,
          "NORMAL": 5
        }
      }],
      "name": "blue-Mesh"
    }
  ]
}